
<svg width="256" height="256" viewBox="0 0 256 256" fill="none" xmlns="http://www.w3.org/2000/svg">
  <!-- Background circle -->
  <circle cx="128" cy="128" r="120" fill="#2563eb" stroke="#1d4ed8" stroke-width="4"/>
  
  <!-- Invoice icon -->
  <rect x="80" y="70" width="96" height="116" rx="8" fill="white" stroke="#2563eb" stroke-width="2"/>
  
  <!-- Header lines -->
  <rect x="90" y="85" width="60" height="3" rx="1.5" fill="#2563eb"/>
  <rect x="90" y="95" width="40" height="2" rx="1" fill="#94a3b8"/>
  
  <!-- Content lines -->
  <rect x="90" y="110" width="76" height="2" rx="1" fill="#94a3b8"/>
  <rect x="90" y="120" width="76" height="2" rx="1" fill="#94a3b8"/>
  <rect x="90" y="130" width="50" height="2" rx="1" fill="#94a3b8"/>
  
  <!-- Amount section -->
  <rect x="90" y="150" width="30" height="2" rx="1" fill="#94a3b8"/>
  <rect x="130" y="150" width="36" height="2" rx="1" fill="#2563eb"/>
  <rect x="90" y="160" width="30" height="2" rx="1" fill="#94a3b8"/>
  <rect x="130" y="160" width="36" height="2" rx="1" fill="#2563eb"/>
  
  <!-- Total line -->
  <rect x="90" y="170" width="76" height="1" rx="0.5" fill="#94a3b8"/>
  <rect x="130" y="175" width="36" height="3" rx="1.5" fill="#2563eb"/>
  
  <!-- Letter "T" overlay -->
  <text x="128" y="80" text-anchor="middle" font-family="Arial, sans-serif" font-size="24" font-weight="bold" fill="#2563eb">T</text>
</svg>
